<svg xmlns="http://www.w3.org/2000/svg" width="75" height="61"><path d="M5.04 58.95S5.04 61 6.907 61h27.02s2-.184 2-1.984V47.942H5.04V58.95zM73.875 8.016H60.387c-.62-2.287-2.07-3.89-3.762-3.89h-7.542v12.75h7.542c1.7 0 3.14-1.604 3.762-3.89h13.488c.575 0 1.042-1.112 1.042-2.484s-.467-2.484-1.042-2.484zM2.103 0C.167 0 0 2.04 0 2.04v15.812c0 2.936 2.903 3.002 2.903 3.002H11.9c1.935 0 1.6 1.334 1.6 1.334L10.776 37.4c-.267 2.203-1.868 3.604-1.868 3.604l-3.002 1.668c-.867.467-.867 2.2-.867 2.2h30.89v-.734c0-1.467-6.472-3.135-9.073-3.402s-2.068-2.002-2.068-2.002l1.067-7.805h3.002L30 23.057h-3.002l.33-2.737 8.61-.13c5.805-.6 10.008-4.07 10.008-4.07v-12C41.333.84 33.993 0 33.993 0h-31.9zM36 4.938v.03c0 .55-.45 1-1 1H5.03c-.55 0-1-.45-1-1v-.03c0-.55.45-1 1-1H35c.55 0 1 .45 1 1z" fill="#fff"/></svg>