<svg xmlns="http://www.w3.org/2000/svg" width="19" height="19"><path fill="#b7bfc8" d="M15.572 18.985h-.94c-4.13-.488-7.157-2.408-9.36-4.864-2.2-2.46-3.954-5.63-4.294-9.893V3.084c.078-.774.46-1.304.898-1.757C2.425.766 3.25.044 4.002.02c.554-.018 1.5.38 1.88.9.33.446.504 1.34.656 2.003.154.67.505 1.643.408 2.29-.148 1.007-1.487 1.434-1.88 2.166 1.307 3.135 3.443 5.44 6.293 7.03.715-.392 1.346-1.572 2.332-1.595.36-.01.818.178 1.184.286.402.12.75.275 1.104.408.596.224 1.648.52 2.004 1.02.365.513.57 1.356.5 1.88-.164 1.04-1.88 2.197-2.9 2.58z"/></svg>