<svg xmlns="http://www.w3.org/2000/svg" width="109" height="19"><path fill="#fff" fill-rule="evenodd" d="M104.634 2.306v15.75h-2.128V2.306h-3.783V.556h9.694v1.75h-3.783zm-8.403 9.262c-.37.492-.835.842-1.395 1.05s-1.226.313-1.998.313a11.42 11.42 0 0 1-1.229-.075l-1.135-.175v5.374h-2.128V.806a10.653 10.653 0 0 1 1.809-.387 16.137 16.137 0 0 1 1.974-.112c.946 0 1.75.104 2.412.312s1.197.554 1.607 1.037.7 1.125.9 1.925.284 1.792.284 2.975c0 1.217-.09 2.233-.272 3.05s-.457 1.47-.828 1.962zm-1.206-7.262c-.118-.6-.303-1.075-.555-1.425a2.026 2.026 0 0 0-.958-.737c-.386-.142-.847-.213-1.383-.213h-1.655v9.25h1.655c.536 0 .997-.07 1.383-.213a2.02 2.02 0 0 0 .958-.737c.252-.35.437-.825.555-1.425s.178-1.35.178-2.25-.06-1.65-.178-2.25zm-11.98 9.25h-4.73l-1.064 4.5h-2.128l4.02-17.5h3.073l4.02 17.5H84.11l-1.064-4.5zm-2.317-10.5h-.095l-1.962 8.75h4.02l-1.962-8.75zm-10.4 2h-.118l-3.428 10.75h-2.13l-3.428-10.75h-.118l-.71 13H58.27l.945-17.5h2.6l3.854 12h.095l3.854-12h2.6l.946 17.5h-2.128l-.71-13zM54.762 16.43c-.44.684-.973 1.167-1.596 1.45s-1.336.425-2.14.425-1.517-.142-2.14-.425-1.154-.766-1.596-1.45-.776-1.603-1.004-2.762-.343-2.612-.343-4.362.114-3.204.343-4.362.563-2.08 1.004-2.763.974-1.166 1.596-1.45 1.336-.424 2.14-.424 1.517.14 2.14.424 1.155.767 1.596 1.45.776 1.605 1.005 2.763.343 2.612.343 4.362-.115 3.204-.343 4.362-.564 2.08-1.005 2.762zM53.734 5.606c-.166-.966-.383-1.733-.65-2.3s-.583-.958-.945-1.175a2.149 2.149 0 0 0-1.112-.324c-.378 0-.748.108-1.11.324s-.678.61-.946 1.175-.484 1.334-.65 2.3-.248 2.2-.248 3.7.083 2.733.248 3.7.382 1.733.65 2.3.583.96.946 1.175a2.14 2.14 0 0 0 1.111.325 2.14 2.14 0 0 0 1.112-.325c.362-.216.677-.608.945-1.175s.485-1.333.65-2.3.248-2.2.248-3.7-.083-2.733-.248-3.7zm-12.52 4.45H36.25v8H34.12V.556h2.128v7.75h4.965V.556h2.128v17.5h-2.128v-8zm-11.285 8l-2.956-7.5-2.955 7.5H21.9l3.546-9-3.192-8.5h2.128l2.6 7 2.6-7h2.128l-3.192 8.5 3.547 9H29.93zM12.12.556h8.04v1.75h-5.91v5.75h5.202v1.75h-5.202v6.5h5.91v1.75h-8.04V.556zm-5.788 17.5H4.204V2.306H.42V.556h9.694v1.75H6.332v15.75z"/></svg>