<svg xmlns="http://www.w3.org/2000/svg" width="26" height="15"><path fill="#fff" d="M16.138 11.5c.956-.31 2.18 2.04 3.483 2.94.978.68 1.727.534 1.727.534l3.473-.05s1.815-.112.957-1.554c-.07-.12-.503-1.07-2.585-3.022-2.177-2.043-1.882-1.712.74-5.244 1.597-2.153 2.236-3.468 2.036-4.028-.192-.54-1.365-.4-1.365-.4L20.7.713c-.38.001-.704.12-.85.515-.003.004-.62 1.666-1.445 3.08-1.74 2.99-2.436 3.148-2.724 2.96-.66-.433-.494-1.737-.494-2.664 0-2.897.432-4.105-.846-4.417-.427-.104-.74-.172-1.828-.182-1.392-.02-2.574 0-3.244.33-.445.223-.786.712-.58.74.26.035.843.16 1.155.586.4.552.39 1.79.39 1.79s.23 3.41-.54 3.834c-.528.3-1.25-.302-2.803-3.016-.793-1.388-1.392-2.922-1.392-2.922s-.116-.285-.326-.44c-.25-.185-.6-.244-.6-.244L.848.684S.3.7.085.946c-.182.218-.015.668-.015.668s2.91 6.88 6.203 10.347c3.02 3.182 6.452 2.97 6.452 2.97h1.555s.47-.054.71-.312c.224-.24.214-.69.214-.69s-.03-2.11.935-2.42z"/></svg>